<svg width="62" height="40" viewBox="0 0 62 40" fill="none" xmlns="http://www.w3.org/2000/svg">
<path d="M22.5099 10.6364H18.4631L13.4219 13.8281V17.6463L18.0852 14.723H18.2045V31H22.5099V10.6364ZM36.2092 10.6364H32.1623L27.1211 13.8281V17.6463L31.7844 14.723H31.9038V31H36.2092V10.6364ZM48.4865 31.2784C53.0206 31.2784 56.103 28.3253 56.093 24.2088C56.103 20.3111 53.3786 17.5071 49.7095 17.5071C47.9197 17.5071 46.3786 18.2528 45.6626 19.2571H45.5433L46.0703 14.1562H54.9695V10.6364H42.5206L41.5561 21.375L45.3842 22.0611C46.0107 21.2159 47.2237 20.6889 48.4268 20.6889C50.4751 20.6989 51.9467 22.1804 51.9467 24.3182C51.9467 26.4361 50.505 27.8977 48.4865 27.8977C46.7763 27.8977 45.3942 26.8239 45.2947 25.2429H41.1186C41.1982 28.7628 44.2706 31.2784 48.4865 31.2784Z" fill="#F5453D"/>
<path d="M4.02202 21.9395H5.19531L5.20526 20.791C7.35795 20.627 8.60582 19.4835 8.6108 17.7584C8.60582 16.0631 7.32812 15.1632 5.55824 14.7655L5.26491 14.6959L5.2848 12.2101C5.94602 12.3642 6.34872 12.7868 6.40838 13.4132H8.47159C8.44673 11.7676 7.21875 10.5893 5.30469 10.3805L5.31463 9.2122H4.14134L4.13139 10.3706C2.1875 10.5595 0.815341 11.7328 0.825284 13.4281C0.820312 14.9295 1.87926 15.7896 3.59943 16.2023L4.0767 16.3216L4.05185 18.9515C3.24148 18.7974 2.6946 18.3003 2.63991 17.47H0.556818C0.606534 19.4785 1.92401 20.6021 4.03196 20.7861L4.02202 21.9395ZM5.22514 18.9515L5.24503 16.6298C6.01562 16.8734 6.43324 17.1866 6.43821 17.7534C6.43324 18.355 5.97585 18.8024 5.22514 18.9515ZM4.09162 14.3926C3.47017 14.1788 3.02273 13.8557 3.03267 13.2839C3.03267 12.752 3.41051 12.3393 4.11151 12.1952L4.09162 14.3926Z" fill="#F5453D"/>
</svg>
