<svg width="47" height="42" viewBox="0 0 47 42" fill="none" xmlns="http://www.w3.org/2000/svg">
<path d="M14.456 31H18.9006L27.3523 14.206V10.6364H13.0639V14.1562H22.8977V14.2955L14.456 31ZM37.467 31.2784C42.0011 31.2784 45.0835 28.3253 45.0735 24.2088C45.0835 20.3111 42.359 17.5071 38.69 17.5071C36.9002 17.5071 35.359 18.2528 34.6431 19.2571H34.5238L35.0508 14.1562H43.9499V10.6364H31.5011L30.5366 21.375L34.3647 22.0611C34.9911 21.2159 36.2042 20.6889 37.4073 20.6889C39.4556 20.6989 40.9272 22.1804 40.9272 24.3182C40.9272 26.4361 39.4854 27.8977 37.467 27.8977C35.7567 27.8977 34.3746 26.8239 34.2752 25.2429H30.0991C30.1786 28.7628 33.2511 31.2784 37.467 31.2784Z" fill="#F5453D"/>
<path d="M4.02202 21.9395H5.19531L5.20526 20.791C7.35795 20.627 8.60582 19.4835 8.6108 17.7584C8.60582 16.0631 7.32812 15.1632 5.55824 14.7655L5.26491 14.6959L5.2848 12.2101C5.94602 12.3642 6.34872 12.7868 6.40838 13.4132H8.47159C8.44673 11.7676 7.21875 10.5893 5.30469 10.3805L5.31463 9.2122H4.14134L4.13139 10.3706C2.1875 10.5595 0.815341 11.7328 0.825284 13.4281C0.820312 14.9295 1.87926 15.7896 3.59943 16.2023L4.0767 16.3216L4.05185 18.9515C3.24148 18.7974 2.6946 18.3003 2.63991 17.47H0.556818C0.606534 19.4785 1.92401 20.6021 4.03196 20.7861L4.02202 21.9395ZM5.22514 18.9515L5.24503 16.6298C6.01562 16.8734 6.43324 17.1866 6.43821 17.7534C6.43324 18.355 5.97585 18.8024 5.22514 18.9515ZM4.09162 14.3926C3.47017 14.1788 3.02273 13.8557 3.03267 13.2839C3.03267 12.752 3.41051 12.3393 4.11151 12.1952L4.09162 14.3926Z" fill="#F5453D"/>
</svg>
