<svg width="154" height="30" viewBox="0 0 154 30" fill="none" xmlns="http://www.w3.org/2000/svg">
<g clip-path="url(#clip0_101_277)">
<path d="M19.9969 4.98101H22.7356V0.211006C22.2631 0.146006 20.6381 -0.000244141 18.7456 -0.000244141C14.7969 -0.000244141 12.0919 2.48351 12.0919 7.04851V11.2498H7.73438V16.5823H12.0919V29.9998H17.4344V16.5835H21.6156L22.2794 11.251H17.4331V7.57726C17.4344 6.03601 17.8494 4.98101 19.9969 4.98101Z" fill="#ACABBF"/>
</g>
<path d="M71.7738 26.2628C82.3875 26.2628 88.1917 17.4697 88.1917 9.84489C88.1917 9.59515 88.1866 9.34644 88.1754 9.09911C89.302 8.28454 90.2812 7.26804 91.0538 6.11102C90.0199 6.57077 88.9071 6.87984 87.7401 7.01968C88.9313 6.30503 89.846 5.17502 90.2774 3.82794C89.1625 4.48892 87.9277 4.96914 86.6133 5.22851C85.5604 4.10692 84.0611 3.40552 82.4011 3.40552C79.2147 3.40552 76.6304 5.98959 76.6304 9.17496C76.6304 9.628 76.6812 10.0683 76.7801 10.4907C71.9843 10.2494 67.7315 7.95345 64.8858 4.46192C64.3905 5.31451 64.1046 6.3052 64.1046 7.36229C64.1046 9.36399 65.1233 11.1316 66.6723 12.1653C65.7257 12.1362 64.8364 11.8763 64.059 11.4438C64.0582 11.468 64.0582 11.4916 64.0582 11.5174C64.0582 14.312 66.0471 16.6453 68.6878 17.174C68.2028 17.3059 67.6925 17.377 67.1661 17.377C66.795 17.377 66.4331 17.3405 66.0815 17.2729C66.8161 19.5656 68.9465 21.234 71.4721 21.2808C69.497 22.8287 67.0091 23.7508 64.3051 23.7508C63.8401 23.7508 63.3803 23.7241 62.9286 23.6708C65.4825 25.3077 68.5149 26.263 71.7739 26.263" fill="#ACABBF"/>
<g clip-path="url(#clip1_101_277)">
<path d="M144.625 0H133.375C128.198 0 124 4.19813 124 9.375V20.625C124 25.8019 128.198 30 133.375 30H144.625C149.802 30 154 25.8019 154 20.625V9.375C154 4.19813 149.802 0 144.625 0ZM151.188 20.625C151.188 24.2437 148.244 27.1875 144.625 27.1875H133.375C129.756 27.1875 126.812 24.2437 126.812 20.625V9.375C126.812 5.75625 129.756 2.8125 133.375 2.8125H144.625C148.244 2.8125 151.188 5.75625 151.188 9.375V20.625Z" fill="#ACABBF"/>
<path d="M139 7.49976C134.858 7.49976 131.5 10.8579 131.5 14.9998C131.5 19.1416 134.858 22.4998 139 22.4998C143.142 22.4998 146.5 19.1416 146.5 14.9998C146.5 10.8579 143.142 7.49976 139 7.49976ZM139 19.6873C136.417 19.6873 134.313 17.5835 134.313 14.9998C134.313 12.4141 136.417 10.3123 139 10.3123C141.584 10.3123 143.688 12.4141 143.688 14.9998C143.688 17.5835 141.584 19.6873 139 19.6873Z" fill="#ACABBF"/>
<path d="M147.063 7.93721C147.615 7.93721 148.062 7.48978 148.062 6.93784C148.062 6.38591 147.615 5.93848 147.063 5.93848C146.511 5.93848 146.063 6.38591 146.063 6.93784C146.063 7.48978 146.511 7.93721 147.063 7.93721Z" fill="#ACABBF"/>
</g>
<defs>
<clipPath id="clip0_101_277">
<rect width="30" height="30" fill="white"/>
</clipPath>
<clipPath id="clip1_101_277">
<rect width="30" height="30" fill="white" transform="translate(124)"/>
</clipPath>
</defs>
</svg>
